<svg width="149" height="142" viewBox="0 0 149 142" fill="none" xmlns="http://www.w3.org/2000/svg">
<path d="M48.593 49.669C44.9146 49.7682 41.2086 50.2023 37.5641 49.8953C28.6196 49.145 19.709 48.0351 10.7799 47.1018C7.26496 46.736 3.73771 46.4569 0.161133 46.3143C14.3318 56.4249 29.597 64.331 46.3453 69.9241C45.7779 70.445 45.4141 70.845 44.9886 71.1581C40.6382 74.3609 36.226 77.4737 31.9372 80.7571C27.1643 84.4125 22.4623 88.164 17.8251 91.99C16.5147 93.072 15.5373 94.5571 14.1838 96.1166C29.375 97.1615 42.9999 91.9683 57.2261 87.9377C56.7359 88.8306 56.4522 89.3608 56.1562 89.8817C51.1521 98.7117 45.929 107.427 42.0287 116.84C39.7132 122.427 37.7646 128.126 37.5086 134.258C37.4871 134.81 37.5056 135.365 37.5056 136.177C38.4552 135.75 39.2075 135.452 39.9167 135.08C46.4069 131.679 51.6855 126.749 56.3566 121.227C61.9096 114.66 67.1172 107.799 72.4759 101.068C72.886 100.55 73.296 100.032 73.9898 99.1613C74.2087 100.867 74.3721 102.2 74.5478 103.53C75.4821 110.583 76.2683 117.662 77.4091 124.681C78.3279 130.339 80.036 135.812 82.5797 140.983C82.7123 141.253 82.8788 141.507 83.1656 142C83.625 141.219 84.0319 140.602 84.3649 139.944C87.1923 134.376 88.5613 128.346 89.9086 122.303C91.2745 116.17 92.7237 110.056 94.1481 103.936C94.2622 103.449 94.4749 102.984 94.7339 102.252C106.262 115.504 119.388 126.563 134.295 135.709C133.993 135.067 133.731 134.407 133.386 133.79C129.624 127.037 125.847 120.294 122.082 113.544C118.617 107.331 115.29 101.049 113.209 94.1944C112.999 93.5092 112.83 92.8147 112.583 91.9093C124.019 89.9902 135.541 91.1125 147.143 89.584C146.619 88.9081 146.227 88.3314 145.765 87.823C141.664 83.3118 136.401 80.7199 130.651 79.3464C124.176 77.8024 117.578 76.7947 111.032 75.5545C110.801 75.5111 110.57 75.4584 110.28 75.2507C124.472 69.5428 136.864 61.0941 148.161 50.9464C148.145 50.7418 148.133 50.5371 148.117 50.3356C145.447 50.0721 142.774 49.5667 140.104 49.5915C134.098 49.6504 128.335 51.213 122.659 53.0547C116.758 54.9707 110.884 56.9736 104.992 58.9238C104.277 59.1594 103.53 59.299 102.445 59.5687C102.794 58.6386 102.975 57.972 103.284 57.3674C105.821 52.416 108.377 47.4739 110.936 42.5318C115.811 33.1158 119.616 23.2905 122.076 12.9629C122.471 11.3011 122.44 9.54004 122.647 7.37904C121.453 7.8441 120.633 8.00533 120.001 8.43629C117.334 10.2624 114.547 11.9708 112.124 14.0884C104.554 20.7078 97.4225 27.7582 91.3917 35.8845C89.1224 38.9415 86.4862 41.7195 84.0566 44.6556C83.6373 45.1641 83.403 45.8276 83.0823 46.4197C82.8233 46.2399 82.5643 46.0601 82.3084 45.8834C82.0772 43.9146 81.7812 41.9489 81.6239 39.9739C81.1645 34.2629 80.8469 28.5395 80.3074 22.8378C79.7092 16.4974 78.6085 10.2531 75.6208 4.52974C74.8654 3.08493 73.8757 1.76105 72.7503 2.44379e-06C67.6413 14.8976 64.7554 29.696 65.1747 45.4369C64.5087 44.9563 64.0062 44.7238 63.6824 44.3393C61.2744 41.4652 58.7831 38.6469 56.5509 35.6395C53.9424 32.1267 51.6577 28.369 49.0647 24.8438C46.6628 21.5759 43.7677 18.7949 39.9537 17.1795C39.5282 16.9997 39.1027 16.8199 38.6618 16.6835C38.375 16.5935 38.0636 16.5811 37.4254 16.4819C37.9742 18.7669 38.2702 20.9745 39.0318 23.0021C41.187 28.738 43.5734 34.3869 45.7872 40.0979C46.9342 43.0558 47.9177 46.0787 48.9753 49.0737C48.852 49.269 48.7225 49.4706 48.593 49.669Z" fill="white"/>
</svg>
