<svg width="150" height="142" viewBox="0 0 150 142" fill="none" xmlns="http://www.w3.org/2000/svg">
<path d="M49.4398 92.331C45.7512 92.2318 42.0348 91.7977 38.3803 92.1047C29.4108 92.855 20.4754 93.9649 11.5214 94.8982C7.99667 95.264 4.45959 95.5431 0.873047 95.6857C15.0832 85.5751 30.3909 77.669 47.1858 72.0759C46.6169 71.555 46.2521 71.155 45.8254 70.8419C41.4628 67.6391 37.0384 64.5263 32.7376 61.2429C27.9515 57.5875 23.2364 53.836 18.5862 50.01C17.2722 48.928 16.2921 47.4429 14.9348 45.8834C30.1683 44.8385 43.8312 50.0317 58.097 54.0623C57.6054 53.1694 57.3209 52.6392 57.0241 52.1183C52.006 43.2883 46.7684 34.573 42.8573 25.16C40.5353 19.5731 38.5812 13.8745 38.3246 7.74179C38.303 7.18991 38.3215 6.63493 38.3215 5.82262C39.2738 6.25048 40.0282 6.54812 40.7393 6.92017C47.2477 10.3214 52.5409 15.251 57.2251 20.7729C62.7935 27.3397 68.0156 34.2009 73.3893 40.932C73.8005 41.4497 74.2117 41.9675 74.9074 42.8387C75.1269 41.1335 75.2907 39.8003 75.467 38.4702C76.4038 31.4167 77.1922 24.3384 78.3362 17.319C79.2576 11.6607 80.9705 6.18847 83.5212 1.01694C83.6542 0.747205 83.8212 0.492969 84.1087 0C84.5694 0.78131 84.9775 1.3983 85.3114 2.05559C88.1466 7.62397 89.5194 13.6543 90.8706 19.6971C92.2403 25.8297 93.6934 31.9438 95.1219 38.0641C95.2363 38.5508 95.4496 39.0159 95.7093 39.7476C107.27 26.4963 120.432 15.4371 135.381 6.29079C135.078 6.93258 134.815 7.59297 134.469 8.20996C130.697 14.9627 126.909 21.7062 123.134 28.4558C119.659 34.6691 116.323 40.9506 114.236 47.8056C114.025 48.4908 113.855 49.1853 113.608 50.0907C125.076 52.0098 136.63 50.8875 148.265 52.416C147.739 53.0919 147.346 53.6686 146.882 54.177C142.77 58.6882 137.493 61.2801 131.726 62.6536C125.233 64.1976 118.617 65.2053 112.053 66.4455C111.821 66.4889 111.589 66.5416 111.298 66.7493C125.53 72.4572 137.956 80.9059 149.285 91.0536C149.269 91.2582 149.257 91.4629 149.242 91.6644C146.564 91.9279 143.883 92.4333 141.206 92.4085C135.183 92.3496 129.404 90.787 123.712 88.9453C117.794 87.0293 111.904 85.0264 105.996 83.0762C105.279 82.8406 104.53 82.701 103.442 82.4313C103.791 83.3614 103.974 84.028 104.283 84.6326C106.828 89.584 109.391 94.5261 111.957 99.4682C116.845 108.884 120.661 118.71 123.128 129.037C123.524 130.699 123.493 132.46 123.7 134.621C122.503 134.156 121.681 133.995 121.047 133.564C118.373 131.738 115.578 130.029 113.147 127.912C105.557 121.292 98.4054 114.242 92.3578 106.116C90.0822 103.059 87.4386 100.281 85.0022 97.3444C84.5817 96.8359 84.3468 96.1724 84.0252 95.5803C83.7655 95.7601 83.5058 95.9399 83.2492 96.1166C83.0173 98.0854 82.7205 100.051 82.5628 102.026C82.1021 107.737 81.7836 113.46 81.2426 119.162C80.6427 125.503 79.5389 131.747 76.5429 137.47C75.7854 138.915 74.793 140.239 73.6644 142C68.5412 127.102 65.6473 112.304 66.0678 96.5631C65.3999 97.0437 64.896 97.2762 64.5713 97.6607C62.1566 100.535 59.6584 103.353 57.4199 106.36C54.8042 109.873 52.5131 113.631 49.9129 117.156C47.5043 120.424 44.6011 123.205 40.7764 124.82C40.3498 125 39.9231 125.18 39.481 125.317C39.1934 125.406 38.8811 125.419 38.2411 125.518C38.7915 123.233 39.0883 121.026 39.852 118.998C42.0132 113.262 44.4063 107.613 46.6262 101.902C47.7764 98.9442 48.7627 95.9213 49.8232 92.9263C49.6995 92.731 49.5697 92.5294 49.4398 92.331Z" fill="white" fill-opacity="0.36"/>
</svg>
