<svg width="24" height="25" viewBox="0 0 24 25" fill="none" xmlns="http://www.w3.org/2000/svg">
<g clip-path="url(#clip0_618_6196)">
<path d="M12.0849 3.4325H12.2449C13.7915 3.48583 15.2582 3.53917 16.6449 3.5925C19.0982 3.64583 20.6715 3.77917 21.3649 3.9925C21.8982 4.09917 22.3515 4.3525 22.7249 4.7525C23.0982 5.1525 23.3515 5.60583 23.4849 6.1125C23.6182 6.61917 23.7382 7.32583 23.8449 8.2325L23.9249 8.8725C23.9782 9.88583 24.0049 10.8725 24.0049 11.8325V11.9925C24.0049 13.0058 23.9515 14.0192 23.8449 15.0325V15.3525C23.7382 16.3658 23.6182 17.1392 23.4849 17.6725C23.3515 18.2058 23.0982 18.6592 22.7249 19.0325C22.3515 19.4058 21.8982 19.6725 21.3649 19.8325C20.6182 20.0458 18.9649 20.1792 16.4049 20.2325C14.9649 20.2858 13.5249 20.3125 12.0849 20.3125H11.9249C10.4849 20.3125 9.01822 20.2858 7.52488 20.2325H6.64488C4.61822 20.1258 3.31155 19.9925 2.72488 19.8325C2.13822 19.6725 1.65822 19.4058 1.28488 19.0325C0.911549 18.6592 0.644883 18.2058 0.484883 17.6725C0.324883 17.1392 0.218216 16.3658 0.164883 15.3525V15.0325C0.0582161 14.0192 0.00488281 13.0058 0.00488281 11.9925V11.8325C0.00488281 10.8725 0.0315495 9.96583 0.0848828 9.1125L0.164883 8.2325C0.271549 7.32583 0.391549 6.61917 0.524883 6.1125C0.658216 5.60583 0.911549 5.1525 1.28488 4.7525C1.65822 4.3525 2.11155 4.09917 2.64488 3.9925C3.28488 3.8325 4.61822 3.69917 6.64488 3.5925L7.52488 3.5125C8.96488 3.5125 10.3782 3.48583 11.7649 3.4325H12.0849ZM9.60488 8.3125V15.5125L15.8449 11.9125L9.60488 8.3125Z" fill="white"/>
</g>
<defs>
<clipPath id="clip0_618_6196">
<rect width="24" height="24" fill="white" transform="matrix(1 0 0 -1 0.00488281 24.4727)"/>
</clipPath>
</defs>
</svg>
