<svg width="132" height="226" viewBox="0 0 132 226" fill="none" xmlns="http://www.w3.org/2000/svg">
<path d="M118.045 225.908L76.3617 185.96L131.799 169.835L118.045 225.908ZM3.43615 0.431798C13.776 3.53218 24.0572 13.2177 33.7556 25.6418C43.6276 38.2885 53.562 54.6611 63.0028 72.4703C81.896 108.111 99.1209 150.097 110.186 181.019L100.771 184.388C89.8125 153.765 72.7711 112.249 54.1674 77.154C44.8597 59.5957 35.238 43.7923 25.8729 31.7951C16.3341 19.5754 7.69696 12.1493 0.564013 10.0105L3.43615 0.431798Z" fill="white"/>
<path d="M118.045 225.908L76.3617 185.96L131.799 169.835L118.045 225.908ZM3.43615 0.431798C13.776 3.53218 24.0572 13.2177 33.7556 25.6418C43.6276 38.2885 53.562 54.6611 63.0028 72.4703C81.896 108.111 99.1209 150.097 110.186 181.019L100.771 184.388C89.8125 153.765 72.7711 112.249 54.1674 77.154C44.8597 59.5957 35.238 43.7923 25.8729 31.7951C16.3341 19.5754 7.69696 12.1493 0.564013 10.0105L3.43615 0.431798Z" fill="black" fill-opacity="0.2"/>
</svg>
