<svg width="132" height="226" viewBox="0 0 132 226" fill="none" xmlns="http://www.w3.org/2000/svg">
<path d="M14.0104 225.908L55.6939 185.96L0.256452 169.835L14.0104 225.908ZM128.62 0.431798C118.28 3.53218 107.998 13.2177 98.3001 25.6418C88.428 38.2885 78.4936 54.6611 69.0529 72.4703C50.1597 108.111 32.9348 150.097 21.8697 181.019L31.2851 184.388C42.2432 153.765 59.2846 112.249 77.8883 77.154C87.196 59.5957 96.8177 43.7923 106.183 31.7951C115.722 19.5754 124.359 12.1493 131.492 10.0105L128.62 0.431798Z" fill="white"/>
<path d="M14.0104 225.908L55.6939 185.96L0.256452 169.835L14.0104 225.908ZM128.62 0.431798C118.28 3.53218 107.998 13.2177 98.3001 25.6418C88.428 38.2885 78.4936 54.6611 69.0529 72.4703C50.1597 108.111 32.9348 150.097 21.8697 181.019L31.2851 184.388C42.2432 153.765 59.2846 112.249 77.8883 77.154C87.196 59.5957 96.8177 43.7923 106.183 31.7951C115.722 19.5754 124.359 12.1493 131.492 10.0105L128.62 0.431798Z" fill="black" fill-opacity="0.2"/>
</svg>
