<svg width="50" height="50" viewBox="0 0 50 50" fill="none" xmlns="http://www.w3.org/2000/svg">
<circle cx="25" cy="25" r="25" fill="#005625"/>
<path d="M15.6 20.2001H33.7337C34.6176 20.2001 35.3338 19.4839 35.3338 18.6C35.3338 17.7162 34.6176 17 33.7337 17H15.6C14.7162 17 14 17.7162 14 18.6C14 19.4839 14.7162 20.2001 15.6 20.2001Z" fill="white"/>
<path d="M33.7337 23.3994H15.6C14.7162 23.3994 14 24.1156 14 24.9994C14 25.8833 14.7162 26.5995 15.6 26.5995H33.7337C34.6176 26.5995 35.3338 25.8833 35.3338 24.9994C35.3338 24.1156 34.6176 23.3994 33.7337 23.3994Z" fill="white"/>
<path d="M33.7337 29.7998H15.6C14.7162 29.7998 14 30.516 14 31.3998C14 32.2837 14.7162 32.9999 15.6 32.9999H33.7337C34.6176 32.9999 35.3338 32.2837 35.3338 31.3998C35.3338 30.516 34.6176 29.7998 33.7337 29.7998Z" fill="white"/>
</svg>
