<svg width="24" height="25" viewBox="0 0 24 25" fill="none" xmlns="http://www.w3.org/2000/svg">
<g clip-path="url(#clip0_602_3827)">
<path d="M7.52 23.3711C10.4 23.3711 12.96 22.6511 15.2 21.2111C17.2267 19.8778 18.8 18.1178 19.92 15.9311C20.9867 13.7978 21.52 11.6111 21.52 9.3711V8.7311C22.48 8.03776 23.3067 7.18443 24 6.17109C23.0933 6.59776 22.16 6.86443 21.2 6.9711C22.2667 6.3311 22.9867 5.42443 23.36 4.2511C22.3467 4.83776 21.3067 5.23776 20.24 5.4511C19.44 4.6511 18.4933 4.15776 17.4 3.9711C16.3067 3.78443 15.2667 3.95776 14.28 4.4911C13.2933 5.02443 12.5733 5.79776 12.12 6.8111C11.6667 7.82443 11.5733 8.86443 11.84 9.9311C9.86667 9.82443 7.98667 9.3311 6.2 8.4511C4.41333 7.5711 2.90667 6.35776 1.68 4.8111C1.04 5.9311 0.866667 7.11776 1.16 8.3711C1.45333 9.62443 2.13333 10.6244 3.2 11.3711C2.4 11.3178 1.65333 11.1044 0.96 10.7311V10.8111C0.96 11.9844 1.33333 13.0244 2.08 13.9311C2.82667 14.8378 3.76 15.3978 4.88 15.6111C4.45333 15.7711 4.02667 15.8511 3.6 15.8511C3.28 15.8511 2.98667 15.8244 2.72 15.7711C3.04 16.7311 3.61333 17.5311 4.44 18.1711C5.26667 18.8111 6.21333 19.1311 7.28 19.1311C6.42667 19.8244 5.46667 20.3578 4.4 20.7311C3.33333 21.1044 2.26667 21.2911 1.2 21.2911C0.773333 21.2911 0.373333 21.2644 0 21.2111C2.29333 22.6511 4.8 23.3711 7.52 23.3711Z" fill="white"/>
</g>
<defs>
<clipPath id="clip0_602_3827">
<rect width="24" height="24" fill="white" transform="matrix(1 0 0 -1 0 24.8906)"/>
</clipPath>
</defs>
</svg>
