<svg width="24" height="25" viewBox="0 0 24 25" fill="none" xmlns="http://www.w3.org/2000/svg">
<g clip-path="url(#clip0_602_3839)">
<path d="M12 0.890625C9.76 0.890625 8.09333 0.917292 7 0.970625C5.90667 1.02396 4.96 1.21062 4.16 1.53063C3.36 1.85063 2.65333 2.31729 2.04 2.93063C1.42667 3.54396 0.96 4.25063 0.64 5.05062C0.32 5.85063 0.133333 6.79729 0.08 7.89062C0.0266667 8.98396 0 10.6506 0 12.8906C0 15.1306 0.0266667 16.7973 0.08 17.8906C0.133333 18.984 0.32 19.9306 0.64 20.7306C0.96 21.5306 1.42667 22.2373 2.04 22.8506C2.65333 23.464 3.36 23.9306 4.16 24.2506C4.96 24.5706 5.90667 24.7573 7 24.8106C8.09333 24.864 9.76 24.8906 12 24.8906C14.24 24.8906 15.9067 24.864 17 24.8106C18.0933 24.7573 19.04 24.5706 19.84 24.2506C20.64 23.9306 21.3467 23.464 21.96 22.8506C22.5733 22.2373 23.04 21.5306 23.36 20.7306C23.68 19.9306 23.8667 18.984 23.92 17.8906C23.9733 16.7973 24 15.1306 24 12.8906C24 10.6506 23.9733 8.98396 23.92 7.89062C23.8667 6.79729 23.68 5.85063 23.36 5.05062C23.04 4.25063 22.5733 3.54396 21.96 2.93063C21.3467 2.31729 20.64 1.85063 19.84 1.53063C19.04 1.21062 18.0933 1.02396 17 0.970625C15.9067 0.917292 14.24 0.890625 12 0.890625ZM10.96 3.05062H12C14.24 3.05062 15.8667 3.07729 16.88 3.13062C17.7333 3.18396 18.44 3.31729 19 3.53063C19.56 3.74396 20.04 4.05062 20.44 4.45063C20.84 4.85063 21.1467 5.33063 21.36 5.89062C21.5733 6.45062 21.7067 7.15729 21.76 8.01063C21.8133 9.02396 21.84 10.6506 21.84 12.8906C21.84 15.1306 21.8133 16.7573 21.76 17.7706C21.7067 18.624 21.5733 19.3306 21.36 19.8906C21.1467 20.4506 20.84 20.9306 20.44 21.3306C20.04 21.7306 19.56 22.0373 19 22.2506C18.44 22.464 17.7333 22.5973 16.88 22.6506C15.8133 22.704 14.1867 22.7306 12 22.7306C9.81333 22.7306 8.18667 22.704 7.12 22.6506C6.26667 22.5973 5.56 22.464 5 22.2506C4.44 22.0373 3.96 21.7306 3.56 21.3306C3.16 20.9306 2.85333 20.4506 2.64 19.8906C2.42667 19.3306 2.29333 18.624 2.24 17.7706C2.18667 16.704 2.16 15.064 2.16 12.8506C2.16 10.6373 2.18667 9.02396 2.24 8.01063C2.29333 7.15729 2.42667 6.45062 2.64 5.89062C2.85333 5.33063 3.16 4.85063 3.56 4.45063C3.96 4.05062 4.44 3.74396 5 3.53063C5.56 3.31729 6.29333 3.18396 7.2 3.13062C8.10667 3.07729 9.36 3.05062 10.96 3.05062ZM18.4 5.05062C18.0267 5.05062 17.6933 5.18396 17.4 5.45063C17.1067 5.71729 16.96 6.05062 16.96 6.45062C16.96 6.85063 17.1067 7.19729 17.4 7.49063C17.6933 7.78396 18.04 7.93063 18.44 7.93063C18.84 7.93063 19.1733 7.78396 19.44 7.49063C19.7067 7.19729 19.84 6.85063 19.84 6.45062C19.84 6.05062 19.7067 5.71729 19.44 5.45063C19.1733 5.18396 18.8267 5.05062 18.4 5.05062ZM12 6.73063C10.88 6.73063 9.84 6.99729 8.88 7.53063C7.92 8.06396 7.16 8.81063 6.6 9.77063C6.04 10.7306 5.76 11.7706 5.76 12.8906C5.76 14.0106 6.04 15.0506 6.6 16.0106C7.16 16.9706 7.92 17.7173 8.88 18.2506C9.84 18.784 10.88 19.0506 12 19.0506C13.12 19.0506 14.1467 18.7706 15.08 18.2106C16.0133 17.6506 16.7467 16.904 17.28 15.9706C17.8133 15.0373 18.08 14.0106 18.08 12.8906C18.08 11.7706 17.8133 10.744 17.28 9.81063C16.7467 8.87729 16.0133 8.13062 15.08 7.57063C14.1467 7.01063 13.12 6.73063 12 6.73063ZM12 8.89062C12.6933 8.89062 13.36 9.06396 14 9.41063C14.64 9.75729 15.1333 10.2506 15.48 10.8906C15.8267 11.5306 16 12.1973 16 12.8906C16 13.584 15.8267 14.2506 15.48 14.8906C15.1333 15.5306 14.64 16.024 14 16.3706C13.36 16.7173 12.6933 16.8906 12 16.8906C10.88 16.8906 9.93333 16.504 9.16 15.7306C8.38667 14.9573 8 14.0106 8 12.8906C8 11.7706 8.38667 10.824 9.16 10.0506C9.93333 9.27729 10.88 8.89062 12 8.89062Z" fill="white"/>
</g>
<defs>
<clipPath id="clip0_602_3839">
<rect width="24" height="24" fill="white" transform="matrix(1 0 0 -1 0 24.8906)"/>
</clipPath>
</defs>
</svg>
