<svg width="24" height="25" viewBox="0 0 24 25" fill="none" xmlns="http://www.w3.org/2000/svg">
<g clip-path="url(#clip0_602_3843)">
<path d="M9.28 12.8906C8.90667 12.8906 8.6 13.0106 8.36 13.2506C8.12 13.4906 8 13.784 8 14.1306C8 14.4773 8.12 14.7706 8.36 15.0106C8.6 15.2506 8.89333 15.3706 9.24 15.3706C9.58667 15.3706 9.88 15.2506 10.12 15.0106C10.36 14.7706 10.48 14.4773 10.48 14.1306C10.48 13.784 10.36 13.4906 10.12 13.2506C9.88 13.0106 9.6 12.8906 9.28 12.8906ZM12 18.3306C12.48 18.3306 12.9333 18.304 13.36 18.2506C14.0533 18.0906 14.5867 17.824 14.96 17.4506C15.12 17.2906 15.1467 17.1573 15.04 17.0506C14.9333 16.944 14.84 16.8906 14.76 16.8906C14.68 16.8906 14.6133 16.9173 14.56 16.9706C14.2933 17.2373 13.92 17.424 13.44 17.5306C12.96 17.6373 12.48 17.6906 12 17.6906C11.52 17.6906 11.0533 17.6373 10.6 17.5306C10.1467 17.424 9.78667 17.2373 9.52 16.9706C9.46667 16.9173 9.38667 16.8906 9.28 16.8906C9.17333 16.8906 9.09333 16.9173 9.04 16.9706C8.98667 17.024 8.96 17.104 8.96 17.2106C8.96 17.3173 8.98667 17.3973 9.04 17.4506C9.41333 17.824 9.94667 18.0906 10.64 18.2506C11.12 18.304 11.5733 18.3306 12 18.3306ZM13.52 14.1706C13.52 14.4906 13.64 14.7706 13.88 15.0106C14.12 15.2506 14.4133 15.3706 14.76 15.3706C15.1067 15.3706 15.4 15.2506 15.64 15.0106C15.88 14.7706 16 14.4906 16 14.1706C16 13.8506 15.88 13.5706 15.64 13.3306C15.4 13.0906 15.1067 12.9706 14.76 12.9706C14.4133 12.9706 14.12 13.0906 13.88 13.3306C13.64 13.5706 13.52 13.8506 13.52 14.1706ZM24 12.8906C24 15.0773 23.4667 17.0906 22.4 18.9306C21.3333 20.7706 19.88 22.224 18.04 23.2906C16.2 24.3573 14.1867 24.8906 12 24.8906C9.81333 24.8906 7.8 24.3573 5.96 23.2906C4.12 22.224 2.66667 20.7706 1.6 18.9306C0.533333 17.0906 0 15.0773 0 12.8906C0 10.704 0.533333 8.69063 1.6 6.85063C2.66667 5.01063 4.12 3.55729 5.96 2.49063C7.8 1.42396 9.81333 0.890625 12 0.890625C14.1867 0.890625 16.2 1.42396 18.04 2.49063C19.88 3.55729 21.3333 5.01063 22.4 6.85063C23.4667 8.69063 24 10.704 24 12.8906ZM18.24 11.1306C17.76 11.1306 17.36 11.2906 17.04 11.6106C15.76 10.704 14.1867 10.224 12.32 10.1706L13.12 6.41063L15.76 6.97062C15.76 7.29062 15.8933 7.57063 16.16 7.81063C16.4267 8.05062 16.72 8.15729 17.04 8.13062C17.36 8.10396 17.64 7.97062 17.88 7.73063C18.12 7.49063 18.24 7.19729 18.24 6.85063C18.24 6.50396 18.12 6.21062 17.88 5.97062C17.64 5.73063 17.3733 5.61063 17.08 5.61063C16.7867 5.61063 16.5467 5.67729 16.36 5.81063C16.1733 5.94396 16.0267 6.11729 15.92 6.33063L12.96 5.77063C12.9067 5.71729 12.84 5.71729 12.76 5.77063C12.68 5.82396 12.64 5.90396 12.64 6.01063L11.76 10.1706C9.89333 10.224 8.29333 10.704 6.96 11.6106C6.64 11.2906 6.25333 11.1306 5.8 11.1306C5.34667 11.1306 4.96 11.264 4.64 11.5306C4.32 11.7973 4.12 12.1306 4.04 12.5306C3.96 12.9306 4.01333 13.3173 4.2 13.6906C4.38667 14.064 4.66667 14.3306 5.04 14.4906V15.0506C5.04 15.904 5.34667 16.704 5.96 17.4506C6.57333 18.1973 7.41333 18.7973 8.48 19.2506C9.54667 19.704 10.72 19.9306 12 19.9306C13.28 19.9306 14.4533 19.704 15.52 19.2506C16.5867 18.7973 17.44 18.1973 18.08 17.4506C18.72 16.704 19.04 15.904 19.04 15.0506L18.96 14.4906C19.28 14.3306 19.5333 14.1173 19.72 13.8506C19.9067 13.584 20 13.264 20 12.8906C20 12.4106 19.8267 11.9973 19.48 11.6506C19.1333 11.304 18.72 11.1306 18.24 11.1306Z" fill="white"/>
</g>
<defs>
<clipPath id="clip0_602_3843">
<rect width="24" height="24" fill="white" transform="matrix(1 0 0 -1 0 24.8906)"/>
</clipPath>
</defs>
</svg>
