<svg width="59" height="56" viewBox="0 0 59 56" fill="none" xmlns="http://www.w3.org/2000/svg">
<path d="M19.5812 35.9194L19.7247 36.1369C19.7776 36.2171 19.8306 36.2987 19.8812 36.378L20.013 36.5844L19.9307 36.8151C19.8027 37.1737 19.6762 37.5369 19.549 37.9022C19.263 38.7236 18.9733 39.5555 18.6544 40.3691C18.2724 41.344 17.8825 42.3022 17.4941 43.2571C16.974 44.5355 16.4564 45.8079 15.9632 47.1062C15.8245 47.4717 15.7252 47.8611 15.6321 48.2839C15.6004 48.4278 15.5687 48.5792 15.5361 48.7349C15.5296 48.7656 15.5232 48.7964 15.5167 48.8274C15.566 48.8073 15.6169 48.786 15.6704 48.7637C17.0809 48.1726 18.1694 47.1488 19.0941 45.9043L19.0942 45.9041C19.5916 45.2352 20.061 44.5434 20.5375 43.8413L20.5716 43.7911C21.0576 43.0749 21.5517 42.3485 22.0798 41.6449L19.5812 35.9194ZM19.5812 35.9194L19.3207 35.9124M19.5812 35.9194L19.3207 35.9124M1.74922 37.1387C6.94478 33.6569 12.5115 30.9 18.5681 28.899L19.3818 28.6303L18.7475 28.0542C18.6939 28.0055 18.6384 27.9527 18.5816 27.8988C18.4462 27.77 18.3039 27.6347 18.1648 27.5334M1.74922 37.1387L7.35807 19.335M1.74922 37.1387C2.56291 37.0823 3.37281 37.0106 4.18195 36.9273C5.34862 36.8066 6.51791 36.6781 7.68902 36.5494C10.0772 36.2869 12.4729 36.0235 14.8694 35.8247M1.74922 37.1387L14.8694 35.8247M18.1648 27.5334C18.1648 27.5334 18.1648 27.5335 18.1648 27.5335L17.8705 27.9376L18.1648 27.5334ZM18.1648 27.5334C17.567 27.0981 16.9695 26.6692 16.3736 26.2415C15.2292 25.42 14.091 24.603 12.9694 23.7535M12.9694 23.7535C11.072 22.316 9.2024 20.8404 7.35807 19.335M12.9694 23.7535C12.9694 23.7536 12.9694 23.7536 12.9695 23.7536L12.6675 24.1521M12.9694 23.7535L12.6675 24.1521M7.35807 19.335L7.04175 19.7223M7.35807 19.335L7.04175 19.7223M12.6675 24.1521C10.7648 22.7106 8.89038 21.2311 7.04175 19.7223M12.6675 24.1521L7.04175 19.7223M7.04175 19.7223C6.68933 19.4344 6.39733 19.0742 6.07895 18.6814C6.04955 18.6451 6.01992 18.6086 5.99 18.5718C6.19906 18.5609 6.40736 18.5531 6.61496 18.548M7.04175 19.7223L7.3579 19.3349C7.13456 19.1524 6.93103 18.9289 6.70676 18.6594C6.67691 18.6235 6.64629 18.5863 6.61496 18.548M6.61496 18.548C11.1789 18.4363 15.3984 19.6836 19.7617 20.9734C20.7041 21.252 21.6532 21.5325 22.614 21.8018L23.7674 22.1251L23.1861 21.0777C23.1237 20.9652 23.0691 20.8663 23.0197 20.7768C22.9173 20.5911 22.8373 20.4461 22.756 20.3047C22.7561 20.3049 22.7562 20.305 22.7563 20.3052L6.61496 18.548ZM15.3894 3.06172C15.4927 5.37784 16.2384 7.5491 17.1517 9.72906L17.1517 9.7291C18.4727 12.883 20.1776 15.8354 21.9008 18.8198C22.1859 19.3135 22.4715 19.8081 22.756 20.3047L15.3894 3.06172ZM15.3894 3.06172C15.4676 3.09756 15.5428 3.13372 15.6182 3.17287L15.6184 3.17298C18.1284 4.47421 20.1841 6.3675 22.0223 8.51702C23.5541 10.309 25.0162 12.1525 26.4849 14.0042C27.1325 14.8207 27.7815 15.6389 28.4382 16.455C28.6017 16.6592 28.7655 16.8638 29.0423 17.2077L29.7769 18.1203L29.9276 16.9585C29.9628 16.6872 29.9943 16.441 30.0238 16.2097C30.068 15.8641 30.1079 15.5515 30.1498 15.2377L15.3894 3.06172ZM14.8694 35.8247C15.9052 35.7384 16.976 35.7967 18.005 35.8526M14.8694 35.8247L18.005 35.8526M33.1125 1.01858C32.2266 2.89471 31.6232 4.87055 31.2883 6.91103L31.2883 6.9111C30.969 8.85472 30.7203 10.805 30.4703 12.7655C30.3655 13.5876 30.2604 14.4115 30.1499 15.2375L33.1125 1.01858ZM33.1125 1.01858C33.1159 1.02521 33.1194 1.03187 33.1228 1.03856L33.123 1.03897C34.2167 3.16977 34.751 5.4863 35.2901 7.87768L33.1125 1.01858ZM52.1726 3.88278C46.9119 7.2671 42.2324 11.2801 38.0769 16.0053L37.5165 16.6425L37.2307 15.8436C37.2062 15.7752 37.1792 15.7046 37.1519 15.6332C37.0864 15.462 37.0193 15.2863 36.9814 15.1264L36.9812 15.1257C36.851 14.5724 36.7202 14.0189 36.5894 13.4651C36.1501 11.6058 35.7102 9.74366 35.2901 7.8778L52.1726 3.88278ZM52.1726 3.88278C51.4903 5.09316 50.8072 6.3025 50.1241 7.51201C49.4721 8.66631 48.82 9.82077 48.1684 10.9764C46.7862 13.4279 45.4356 15.9461 44.5886 18.7057M52.1726 3.88278L44.5886 18.7057M44.5886 18.7057C44.5301 18.8948 44.4775 19.0917 44.4205 19.3045C44.3933 19.4062 44.3651 19.5115 44.3349 19.6213L44.1875 20.1564L44.7351 20.2473C47.0529 20.6321 49.373 20.7109 51.6679 20.7702C51.8257 20.7743 51.9833 20.7782 52.1409 20.7822C53.9862 20.8288 55.8143 20.875 57.6432 21.0637C56.0971 22.7291 54.1102 23.7007 51.9047 24.2219C50.1182 24.6433 48.3162 24.9611 46.4978 25.2818C45.7042 25.4218 44.9074 25.5623 44.1074 25.7122C43.9862 25.7348 43.8114 25.7727 43.6096 25.9158L42.8589 26.4481L43.7139 26.7882C49.0548 28.9132 53.7564 32.0156 58.0631 35.7512C58.0016 35.7589 57.9405 35.7666 57.8797 35.7742C57.1667 35.864 56.4904 35.9492 55.7931 35.9428C53.4776 35.9203 51.2398 35.3241 48.9867 34.601C47.5296 34.133 46.0799 33.6529 44.6275 33.1718C43.7355 32.8764 42.8426 32.5807 41.9464 32.2873L41.9457 32.2871C41.7338 32.218 41.5029 32.1647 41.2506 32.1065C41.1365 32.0802 41.018 32.0529 40.8949 32.0226L39.971 31.7954L40.3079 32.6852C40.3431 32.778 40.3768 32.8737 40.4105 32.9694C40.489 33.1924 40.5678 33.4159 40.6654 33.6054L40.6659 33.6062C41.678 35.5599 42.6974 37.5097 43.7176 39.4587C45.6441 43.14 47.1452 46.9764 48.1154 51.0049C48.1844 51.2925 48.2183 51.5977 48.2447 51.9521C48.2531 52.0657 48.2609 52.1871 48.269 52.3145C48.2701 52.331 48.2712 52.3476 48.2722 52.3643C48.1722 52.326 48.1064 52.2939 48.0542 52.2587C47.7952 52.0833 47.5376 51.9132 47.2829 51.745C46.4643 51.2044 45.675 50.6831 44.9608 50.0658C41.9575 47.4676 39.1435 44.7135 36.769 41.5483L36.769 41.5483C36.181 40.7647 35.5177 40.0099 34.8698 39.2727C34.513 38.8666 34.1608 38.4659 33.8284 38.0685C33.7821 38.0128 33.7374 37.9381 33.6826 37.8291C33.6684 37.8009 33.651 37.7649 33.6317 37.7249C33.5906 37.64 33.541 37.5373 33.4951 37.4536L33.2295 36.9682L32.7734 37.2815C32.6701 37.3525 32.5674 37.423 32.466 37.4923L32.2783 37.6205L32.2515 37.8462C32.2235 38.0816 32.1924 38.3221 32.161 38.5655C32.0917 39.1013 32.0205 39.6516 31.9768 40.1951C31.9045 41.0837 31.8415 41.9659 31.7787 42.8452C31.6808 44.2147 31.5835 45.5771 31.4526 46.9459L31.4526 46.9461C31.2162 49.425 30.7851 51.8097 29.6399 53.98C29.4796 54.2835 29.2975 54.5626 29.0856 54.8774C27.2677 49.3699 26.2614 43.8927 26.4175 38.0947L26.4445 37.0908L25.6272 37.6743C25.5451 37.7328 25.4784 37.7755 25.4077 37.8208C25.3716 37.8439 25.3345 37.8676 25.2938 37.8945C25.1875 37.9645 25.0549 38.0573 24.942 38.19L24.9412 38.1909C24.7179 38.4546 24.4911 38.7189 24.2631 38.9847C23.5227 39.8478 22.7693 40.726 22.0799 41.6448L44.5886 18.7057ZM44.7021 26.1106C45.3237 25.9967 45.9462 25.8869 46.5686 25.7771C48.3937 25.4552 50.2187 25.1333 52.0197 24.7085C54.3121 24.1668 56.4102 23.1446 58.045 21.3656C58.1133 21.2912 58.1778 21.2132 58.2425 21.1308C58.2958 21.063 58.3493 20.9922 58.4052 20.9182C58.4646 20.8397 58.5267 20.7574 58.5944 20.6711C58.4021 20.646 58.2099 20.6228 58.0178 20.6012L44.7021 26.1106ZM44.7021 26.1106C44.5151 26.0329 44.3273 25.9564 44.1387 25.8811L44.7021 26.1106ZM43.8988 26.3237L44.0836 25.8591C44.1018 25.8663 44.12 25.8736 44.1381 25.8808L43.8988 26.3237ZM43.8988 26.3237L44.188 26.7315C44.2088 26.7168 44.2203 26.7123 44.2263 26.7101C44.2356 26.7068 44.2489 26.7031 44.29 26.6954L44.2908 26.6953C44.4092 26.6731 44.5278 26.6511 44.6465 26.6292L43.8988 26.3237ZM19.3207 35.9124C18.8943 35.901 18.4536 35.8771 18.005 35.8526M19.3207 35.9124L18.005 35.8526M41.7908 32.7624C41.6537 32.7178 41.5138 32.6819 41.3573 32.6448C41.3261 32.5559 41.2895 32.4534 41.2431 32.3311L40.7755 32.5081L40.6561 32.9937C40.7767 33.0233 40.8826 33.0482 40.9779 33.0702C41.0188 33.1797 41.0602 33.28 41.1099 33.3762L41.7908 32.7624ZM44.8169 19.7541C44.9826 19.7816 45.1483 19.8075 45.3141 19.8319C45.3091 19.8499 45.3041 19.8682 45.299 19.8868L44.8169 19.7541Z" fill="white" fill-opacity="0.36" stroke="black"/>
</svg>
