<svg width="31" height="28" viewBox="0 0 31 28" fill="none" xmlns="http://www.w3.org/2000/svg">
<path d="M7.89739 21.3938L4.81543 25.9438L5.14339 27.432L6.69535 27.1142L9.77585 22.567C9.11342 22.2318 8.48462 21.8391 7.89739 21.3938ZM20.9456 19.8048C20.9661 19.7642 20.9793 19.7194 20.9983 19.676C21.0759 19.5122 21.1447 19.3484 21.2004 19.1762C21.2091 19.1454 21.2135 19.1146 21.2238 19.0866C21.2809 18.8985 21.3288 18.7079 21.3673 18.5154V18.486C21.6528 16.8494 21.155 15.0238 20.0159 13.3746L21.6411 10.975C23.5137 11.2032 25.133 10.7524 25.9119 9.60023C27.2633 7.60803 25.6191 4.29143 22.2443 2.19003C18.8666 0.0872331 15.0364 -0.00096704 13.688 1.98843C12.9061 3.14203 13.1345 4.74223 14.117 6.29063L12.4889 8.69023C10.4552 8.36403 8.51232 8.66783 7.06724 9.58623C7.05845 9.58903 7.0482 9.59183 7.04235 9.59743C6.8735 9.7072 6.71122 9.82592 6.55626 9.95303C6.53137 9.97263 6.50209 9.99083 6.48159 10.0104C6.34103 10.1292 6.2085 10.2564 6.08481 10.3912C6.05553 10.4248 6.01454 10.4542 5.98672 10.4892C5.83078 10.6581 5.68882 10.8383 5.56212 11.0282C3.53579 14.0144 5.26491 18.5336 9.41714 21.1208C13.5723 23.708 18.5825 23.3804 20.6045 20.3942C20.7318 20.2052 20.849 20.0078 20.9456 19.8048ZM19.7523 5.86363C18.4537 5.05583 17.8197 3.78183 18.3395 3.01323C18.8578 2.24743 20.3321 2.28243 21.6279 3.09023C22.9295 3.89803 23.5576 5.17483 23.0407 5.94063C22.5239 6.70643 21.0525 6.67143 19.7523 5.86363Z" fill="#DC3545"/>
</svg>
