<svg width="52" height="141" viewBox="0 0 52 141" fill="none" xmlns="http://www.w3.org/2000/svg">
<path d="M52.0015 140.465L48.1457 117.695L30.3543 132.419L52.0015 140.465ZM6.7973 0.923152C1.79193 8.75781 0.262552 18.8901 0.92195 29.902C1.58273 40.9369 4.45341 53.0666 8.47972 65.0956C16.532 89.1527 29.3138 113.121 38.8556 127.698L42.2024 125.507C32.8138 111.164 20.1982 87.5036 12.2729 63.826C8.31037 51.9876 5.54716 40.2233 4.9148 29.6629C4.28105 19.0794 5.79929 9.91497 10.1681 3.07668L6.7973 0.923152Z" fill="white"/>
<path d="M52.0015 140.465L48.1457 117.695L30.3543 132.419L52.0015 140.465ZM6.7973 0.923152C1.79193 8.75781 0.262552 18.8901 0.92195 29.902C1.58273 40.9369 4.45341 53.0666 8.47972 65.0956C16.532 89.1527 29.3138 113.121 38.8556 127.698L42.2024 125.507C32.8138 111.164 20.1982 87.5036 12.2729 63.826C8.31037 51.9876 5.54716 40.2233 4.9148 29.6629C4.28105 19.0794 5.79929 9.91497 10.1681 3.07668L6.7973 0.923152Z" fill="black" fill-opacity="0.2"/>
</svg>
