<svg width="24" height="25" viewBox="0 0 24 25" fill="none" xmlns="http://www.w3.org/2000/svg">
<g clip-path="url(#clip0_618_6192)">
<path d="M7.52488 22.9531C10.4049 22.9531 12.9649 22.2331 15.2049 20.7931C17.2315 19.4598 18.8049 17.6998 19.9249 15.5131C20.9915 13.3798 21.5249 11.1931 21.5249 8.95313V8.31313C22.4849 7.61979 23.3115 6.76646 24.0049 5.75313C23.0982 6.17979 22.1649 6.44646 21.2049 6.55313C22.2715 5.91313 22.9915 5.00646 23.3649 3.83313C22.3515 4.41979 21.3115 4.81979 20.2449 5.03313C19.4449 4.23313 18.4982 3.73979 17.4049 3.55313C16.3115 3.36646 15.2715 3.53979 14.2849 4.07313C13.2982 4.60646 12.5782 5.37979 12.1249 6.39313C11.6715 7.40646 11.5782 8.44646 11.8449 9.51313C9.87155 9.40646 7.99155 8.91313 6.20488 8.03313C4.41822 7.15313 2.91155 5.93979 1.68488 4.39313C1.04488 5.51313 0.871549 6.69979 1.16488 7.95313C1.45822 9.20646 2.13822 10.2065 3.20488 10.9531C2.40488 10.8998 1.65822 10.6865 0.964883 10.3131V10.3931C0.964883 11.5665 1.33822 12.6065 2.08488 13.5131C2.83155 14.4198 3.76488 14.9798 4.88488 15.1931C4.45822 15.3531 4.03155 15.4331 3.60488 15.4331C3.28488 15.4331 2.99155 15.4065 2.72488 15.3531C3.04488 16.3131 3.61822 17.1131 4.44488 17.7531C5.27155 18.3931 6.21822 18.7131 7.28488 18.7131C6.43155 19.4065 5.47155 19.9398 4.40488 20.3131C3.33822 20.6865 2.27155 20.8731 1.20488 20.8731C0.778216 20.8731 0.378216 20.8465 0.00488281 20.7931C2.29822 22.2331 4.80488 22.9531 7.52488 22.9531Z" fill="white"/>
</g>
<defs>
<clipPath id="clip0_618_6192">
<rect width="24" height="24" fill="white" transform="matrix(1 0 0 -1 0.00488281 24.4727)"/>
</clipPath>
</defs>
</svg>
