<svg width="17" height="17" viewBox="0 0 17 17" fill="none" xmlns="http://www.w3.org/2000/svg">
<g clip-path="url(#clip0_618_6145)">
<path d="M16.7891 8.58203C16.7891 10.0398 16.4335 11.382 15.7224 12.6087C15.0113 13.8354 14.0424 14.8043 12.8157 15.5154C11.5891 16.2265 10.2468 16.582 8.78906 16.582C7.33128 16.582 5.98906 16.2265 4.7624 15.5154C3.53573 14.8043 2.56684 13.8354 1.85573 12.6087C1.14462 11.382 0.789062 10.0398 0.789062 8.58203C0.789062 7.12425 1.14462 5.78203 1.85573 4.55536C2.56684 3.3287 3.53573 2.35981 4.7624 1.6487C5.98906 0.937586 7.33128 0.582031 8.78906 0.582031C10.2468 0.582031 11.5891 0.937586 12.8157 1.6487C14.0424 2.35981 15.0113 3.3287 15.7224 4.55536C16.4335 5.78203 16.7891 7.12425 16.7891 8.58203ZM9.26906 5.06203C9.26906 4.91981 9.22462 4.80425 9.13573 4.71536C9.04684 4.62648 8.93128 4.58203 8.78906 4.58203C8.64684 4.58203 8.53128 4.62648 8.4424 4.71536C8.35351 4.80425 8.30906 4.91981 8.30906 5.06203V10.8754L6.1224 8.74203C6.05128 8.63536 5.94462 8.58203 5.8024 8.58203C5.66017 8.58203 5.53573 8.62648 5.42906 8.71536C5.3224 8.80425 5.26906 8.91981 5.26906 9.06203C5.26906 9.20425 5.3224 9.3287 5.42906 9.43536L8.41573 12.422C8.5224 12.5287 8.64684 12.582 8.78906 12.582C8.93128 12.582 9.05573 12.5287 9.1624 12.422L12.1491 9.43536C12.2557 9.3287 12.3091 9.20425 12.3091 9.06203C12.3091 8.91981 12.2557 8.80425 12.1491 8.71536C12.0424 8.62648 11.918 8.58203 11.7757 8.58203C11.6335 8.58203 11.5268 8.63536 11.4557 8.74203L9.26906 10.8754V5.06203Z" fill="white"/>
</g>
<defs>
<clipPath id="clip0_618_6145">
<rect width="16" height="16" fill="white" transform="matrix(1 0 0 -1 0.789062 16.582)"/>
</clipPath>
</defs>
</svg>
