<svg width="24" height="25" viewBox="0 0 24 25" fill="none" xmlns="http://www.w3.org/2000/svg">
<g clip-path="url(#clip0_618_6200)">
<path d="M24.0049 12.4727C24.0049 14.6593 23.4715 16.6727 22.4049 18.5127C21.3382 20.3527 19.8849 21.806 18.0449 22.8727C16.2049 23.9393 14.1915 24.4727 12.0049 24.4727C9.81822 24.4727 7.80488 23.9393 5.96488 22.8727C4.12488 21.806 2.67155 20.3527 1.60488 18.5127C0.538216 16.6727 0.00488281 14.6593 0.00488281 12.4727C0.00488281 10.286 0.538216 8.27266 1.60488 6.43266C2.67155 4.59266 4.12488 3.13932 5.96488 2.07266C7.80488 1.00599 9.81822 0.472657 12.0049 0.472657C14.1915 0.472657 16.2049 1.00599 18.0449 2.07266C19.8849 3.13932 21.3382 4.59266 22.4049 6.43266C23.4715 8.27266 24.0049 10.286 24.0049 12.4727ZM12.4049 9.35266C11.2315 9.83266 8.91155 10.8193 5.44488 12.3127C4.85822 12.5793 4.55155 12.806 4.52488 12.9927C4.49822 13.1793 4.56488 13.3127 4.72488 13.3927C4.88488 13.4727 5.17822 13.5927 5.60488 13.7527L5.84488 13.8327C6.69822 14.0993 7.32488 14.2327 7.72488 14.2327C8.12488 14.2327 8.56488 14.0727 9.04488 13.7527C12.2982 11.566 13.9782 10.4593 14.0849 10.4327C14.1915 10.406 14.2715 10.4193 14.3249 10.4727C14.3782 10.526 14.3915 10.606 14.3649 10.7127C14.3382 10.8193 13.4449 11.6993 11.6849 13.3527L10.8049 14.1527C10.4315 14.4727 10.2182 14.7527 10.1649 14.9927C10.1115 15.2327 10.3249 15.486 10.8049 15.7527L13.9249 17.8327C14.2449 18.0993 14.5115 18.286 14.7249 18.3927C14.9382 18.4993 15.1515 18.526 15.3649 18.4727C15.7915 18.4727 16.0849 18.0727 16.2449 17.2727C16.4582 15.9393 16.6982 14.4727 16.9649 12.8727C17.2849 10.8993 17.4982 9.48599 17.6049 8.63266C17.6049 8.47266 17.5915 8.32599 17.5649 8.19266C17.5382 8.05932 17.4715 7.93932 17.3649 7.83266C17.2582 7.72599 17.0982 7.67266 16.8849 7.67266C16.6715 7.67266 16.2849 7.77932 15.7249 7.99266C15.1649 8.20599 14.0582 8.65932 12.4049 9.35266Z" fill="white"/>
</g>
<defs>
<clipPath id="clip0_618_6200">
<rect width="24" height="24" fill="white" transform="matrix(1 0 0 -1 0.00488281 24.4727)"/>
</clipPath>
</defs>
</svg>
