<svg width="16" height="17" viewBox="0 0 16 17" fill="none" xmlns="http://www.w3.org/2000/svg">
<g clip-path="url(#clip0_618_6165)">
<path d="M4.00034 2.07536H2.98701C2.45367 2.07536 1.99145 2.27092 1.60034 2.66203C1.20923 3.05314 1.01367 3.53314 1.01367 4.10203V14.5554C1.01367 15.1243 1.20923 15.6043 1.60034 15.9954C1.99145 16.3865 2.45367 16.582 2.98701 16.582H13.0137C13.547 16.582 14.0092 16.3865 14.4003 15.9954C14.7914 15.6043 14.987 15.1243 14.987 14.5554V4.10203C14.987 3.53314 14.7914 3.05314 14.4003 2.66203C14.0092 2.27092 13.547 2.07536 13.0137 2.07536H12.0003V3.0887H13.0137C13.2981 3.0887 13.5381 3.18648 13.7337 3.38203C13.9292 3.57759 14.027 3.81759 14.027 4.10203V14.5554C14.027 14.8398 13.9292 15.0798 13.7337 15.2754C13.5381 15.4709 13.2981 15.5687 13.0137 15.5687H2.98701C2.70256 15.5687 2.47145 15.4709 2.29367 15.2754C2.11589 15.0798 2.02701 14.8398 2.02701 14.5554V4.10203C2.02701 3.81759 2.11589 3.57759 2.29367 3.38203C2.47145 3.18648 2.70256 3.0887 2.98701 3.0887H4.00034V2.07536ZM9.49367 1.59536C9.63589 1.59536 9.76034 1.63981 9.86701 1.7287C9.97367 1.81759 10.027 1.93314 10.027 2.07536V3.0887C10.027 3.23092 9.97367 3.34648 9.86701 3.43536C9.76034 3.52425 9.63589 3.5687 9.49367 3.5687H6.50701C6.36478 3.5687 6.24923 3.52425 6.16034 3.43536C6.07145 3.34648 6.00923 3.23092 5.97367 3.0887V2.07536C6.00923 1.93314 6.07145 1.81759 6.16034 1.7287C6.24923 1.63981 6.36478 1.59536 6.50701 1.59536H9.49367ZM6.50701 0.582031C6.08034 0.582031 5.72478 0.724253 5.44034 1.0087C5.15589 1.29314 5.01367 1.6487 5.01367 2.07536V3.0887C5.01367 3.51536 5.15589 3.87092 5.44034 4.15536C5.72478 4.43981 6.08034 4.58203 6.50701 4.58203H9.49367C9.92034 4.58203 10.2759 4.43981 10.5603 4.15536C10.8448 3.87092 10.987 3.51536 10.987 3.0887V2.07536C10.987 1.6487 10.8448 1.29314 10.5603 1.0087C10.2759 0.724253 9.92034 0.582031 9.49367 0.582031H6.50701Z" fill="black"/>
</g>
<defs>
<clipPath id="clip0_618_6165">
<rect width="16" height="16" fill="white" transform="matrix(1 0 0 -1 0 16.582)"/>
</clipPath>
</defs>
</svg>
