<svg width="132" height="226" viewBox="0 0 132 226" fill="none" xmlns="http://www.w3.org/2000/svg">
<path d="M14.0095 225.908L55.693 185.96L0.255475 169.835L14.0095 225.908ZM128.619 0.431798C118.279 3.53218 107.997 13.2177 98.2991 25.6418C88.427 38.2885 78.4927 54.6611 69.0519 72.4703C50.1587 108.111 32.9338 150.097 21.8688 181.019L31.2841 184.388C42.2422 153.765 59.2836 112.249 77.8873 77.154C87.195 59.5957 96.8167 43.7923 106.182 31.7951C115.721 19.5754 124.358 12.1493 131.491 10.0105L128.619 0.431798Z" fill="white"/>
<path d="M14.0095 225.908L55.693 185.96L0.255475 169.835L14.0095 225.908ZM128.619 0.431798C118.279 3.53218 107.997 13.2177 98.2991 25.6418C88.427 38.2885 78.4927 54.6611 69.0519 72.4703C50.1587 108.111 32.9338 150.097 21.8688 181.019L31.2841 184.388C42.2422 153.765 59.2836 112.249 77.8873 77.154C87.195 59.5957 96.8167 43.7923 106.182 31.7951C115.721 19.5754 124.358 12.1493 131.491 10.0105L128.619 0.431798Z" fill="black" fill-opacity="0.2"/>
</svg>
