<svg width="52" height="141" viewBox="0 0 52 141" fill="none" xmlns="http://www.w3.org/2000/svg">
<path d="M0.64987 140.465L4.50568 117.695L22.297 132.419L0.64987 140.465ZM45.8541 0.923152C50.8594 8.75781 52.3888 18.8901 51.7294 29.902C51.0686 40.9369 48.198 53.0666 44.1716 65.0956C36.1193 89.1527 23.3376 113.121 13.7958 127.698L10.449 125.507C19.8376 111.164 32.4532 87.5036 40.3785 63.826C44.341 51.9876 47.1042 40.2233 47.7366 29.6629C48.3703 19.0794 46.8521 9.91497 42.4833 3.07668L45.8541 0.923152Z" fill="white"/>
<path d="M0.64987 140.465L4.50568 117.695L22.297 132.419L0.64987 140.465ZM45.8541 0.923152C50.8594 8.75781 52.3888 18.8901 51.7294 29.902C51.0686 40.9369 48.198 53.0666 44.1716 65.0956C36.1193 89.1527 23.3376 113.121 13.7958 127.698L10.449 125.507C19.8376 111.164 32.4532 87.5036 40.3785 63.826C44.341 51.9876 47.1042 40.2233 47.7366 29.6629C48.3703 19.0794 46.8521 9.91497 42.4833 3.07668L45.8541 0.923152Z" fill="black" fill-opacity="0.2"/>
</svg>
