<svg width="16" height="16" viewBox="0 0 16 16" fill="none" xmlns="http://www.w3.org/2000/svg">
<g clip-path="url(#clip0_602_3784)">
<path d="M16 8C16 9.45778 15.6444 10.8 14.9333 12.0267C14.2222 13.2533 13.2533 14.2222 12.0267 14.9333C10.8 15.6444 9.45778 16 8 16C6.54222 16 5.2 15.6444 3.97333 14.9333C2.74667 14.2222 1.77778 13.2533 1.06667 12.0267C0.355556 10.8 0 9.45778 0 8C0 6.54222 0.355556 5.2 1.06667 3.97333C1.77778 2.74667 2.74667 1.77778 3.97333 1.06667C5.2 0.355556 6.54222 0 8 0C9.45778 0 10.8 0.355556 12.0267 1.06667C13.2533 1.77778 14.2222 2.74667 14.9333 3.97333C15.6444 5.2 16 6.54222 16 8ZM8.48 4.48C8.48 4.33778 8.43556 4.22222 8.34667 4.13333C8.25778 4.04444 8.14222 4 8 4C7.85778 4 7.74222 4.04444 7.65333 4.13333C7.56444 4.22222 7.52 4.33778 7.52 4.48V10.2933L5.33333 8.16C5.26222 8.05333 5.15556 8 5.01333 8C4.87111 8 4.74667 8.04444 4.64 8.13333C4.53333 8.22222 4.48 8.33778 4.48 8.48C4.48 8.62222 4.53333 8.74667 4.64 8.85333L7.62667 11.84C7.73333 11.9467 7.85778 12 8 12C8.14222 12 8.26667 11.9467 8.37333 11.84L11.36 8.85333C11.4667 8.74667 11.52 8.62222 11.52 8.48C11.52 8.33778 11.4667 8.22222 11.36 8.13333C11.2533 8.04444 11.1289 8 10.9867 8C10.8444 8 10.7378 8.05333 10.6667 8.16L8.48 10.2933V4.48Z" fill="white"/>
</g>
<defs>
<clipPath id="clip0_602_3784">
<rect width="16" height="16" fill="white" transform="matrix(1 0 0 -1 0 16)"/>
</clipPath>
</defs>
</svg>
