<svg width="24" height="25" viewBox="0 0 24 25" fill="none" xmlns="http://www.w3.org/2000/svg">
<g clip-path="url(#clip0_602_3835)">
<path d="M24 12.8906C24 15.0773 23.4667 17.0906 22.4 18.9306C21.3333 20.7706 19.88 22.224 18.04 23.2906C16.2 24.3573 14.1867 24.8906 12 24.8906C9.81333 24.8906 7.8 24.3573 5.96 23.2906C4.12 22.224 2.66667 20.7706 1.6 18.9306C0.533333 17.0906 0 15.0773 0 12.8906C0 10.704 0.533333 8.69063 1.6 6.85063C2.66667 5.01063 4.12 3.55729 5.96 2.49063C7.8 1.42396 9.81333 0.890625 12 0.890625C14.1867 0.890625 16.2 1.42396 18.04 2.49063C19.88 3.55729 21.3333 5.01063 22.4 6.85063C23.4667 8.69063 24 10.704 24 12.8906ZM12.4 9.77063C11.2267 10.2506 8.90667 11.2373 5.44 12.7306C4.85333 12.9973 4.54667 13.224 4.52 13.4106C4.49333 13.5973 4.56 13.7306 4.72 13.8106C4.88 13.8906 5.17333 14.0106 5.6 14.1706L5.84 14.2506C6.69333 14.5173 7.32 14.6506 7.72 14.6506C8.12 14.6506 8.56 14.4906 9.04 14.1706C12.2933 11.984 13.9733 10.8773 14.08 10.8506C14.1867 10.824 14.2667 10.8373 14.32 10.8906C14.3733 10.944 14.3867 11.024 14.36 11.1306C14.3333 11.2373 13.44 12.1173 11.68 13.7706L10.8 14.5706C10.4267 14.8906 10.2133 15.1706 10.16 15.4106C10.1067 15.6506 10.32 15.904 10.8 16.1706L13.92 18.2506C14.24 18.5173 14.5067 18.704 14.72 18.8106C14.9333 18.9173 15.1467 18.944 15.36 18.8906C15.7867 18.8906 16.08 18.4906 16.24 17.6906C16.4533 16.3573 16.6933 14.8906 16.96 13.2906C17.28 11.3173 17.4933 9.90396 17.6 9.05063C17.6 8.89062 17.5867 8.74396 17.56 8.61063C17.5333 8.47729 17.4667 8.35729 17.36 8.25063C17.2533 8.14396 17.0933 8.09063 16.88 8.09063C16.6667 8.09063 16.28 8.19729 15.72 8.41063C15.16 8.62396 14.0533 9.07729 12.4 9.77063Z" fill="white"/>
</g>
<defs>
<clipPath id="clip0_602_3835">
<rect width="24" height="24" fill="white" transform="matrix(1 0 0 -1 0 24.8906)"/>
</clipPath>
</defs>
</svg>
