<svg width="24" height="25" viewBox="0 0 24 25" fill="none" xmlns="http://www.w3.org/2000/svg">
<g clip-path="url(#clip0_602_3831)">
<path d="M12.08 3.85047H12.24C13.7867 3.9038 15.2533 3.95714 16.64 4.01047C19.0933 4.0638 20.6667 4.19714 21.36 4.41047C21.8933 4.51714 22.3467 4.77047 22.72 5.17047C23.0933 5.57047 23.3467 6.0238 23.48 6.53047C23.6133 7.03714 23.7333 7.7438 23.84 8.65047L23.92 9.29047C23.9733 10.3038 24 11.2905 24 12.2505V12.4105C24 13.4238 23.9467 14.4371 23.84 15.4505V15.7705C23.7333 16.7838 23.6133 17.5571 23.48 18.0905C23.3467 18.6238 23.0933 19.0771 22.72 19.4505C22.3467 19.8238 21.8933 20.0905 21.36 20.2505C20.6133 20.4638 18.96 20.5971 16.4 20.6505C14.96 20.7038 13.52 20.7305 12.08 20.7305H11.92C10.48 20.7305 9.01333 20.7038 7.52 20.6505H6.64C4.61333 20.5438 3.30667 20.4105 2.72 20.2505C2.13333 20.0905 1.65333 19.8238 1.28 19.4505C0.906667 19.0771 0.64 18.6238 0.48 18.0905C0.32 17.5571 0.213333 16.7838 0.16 15.7705V15.4505C0.0533333 14.4371 0 13.4238 0 12.4105V12.2505C0 11.2905 0.0266667 10.3838 0.08 9.53047L0.16 8.65047C0.266667 7.7438 0.386667 7.03714 0.52 6.53047C0.653333 6.0238 0.906667 5.57047 1.28 5.17047C1.65333 4.77047 2.10667 4.51714 2.64 4.41047C3.28 4.25047 4.61333 4.11714 6.64 4.01047L7.52 3.93047C8.96 3.93047 10.3733 3.9038 11.76 3.85047H12.08ZM9.6 8.73047V15.9305L15.84 12.3305L9.6 8.73047Z" fill="white"/>
</g>
<defs>
<clipPath id="clip0_602_3831">
<rect width="24" height="24" fill="white" transform="matrix(1 0 0 -1 0 24.8906)"/>
</clipPath>
</defs>
</svg>
