<svg width="16" height="17" viewBox="0 0 16 17" fill="none" xmlns="http://www.w3.org/2000/svg">
<g clip-path="url(#clip0_602_3804)">
<path d="M4.00034 1.74333H2.98701C2.45367 1.74333 1.99145 1.93889 1.60034 2.33C1.20923 2.72111 1.01367 3.20111 1.01367 3.77V14.2233C1.01367 14.7922 1.20923 15.2722 1.60034 15.6633C1.99145 16.0544 2.45367 16.25 2.98701 16.25H13.0137C13.547 16.25 14.0092 16.0544 14.4003 15.6633C14.7914 15.2722 14.987 14.7922 14.987 14.2233V3.77C14.987 3.20111 14.7914 2.72111 14.4003 2.33C14.0092 1.93889 13.547 1.74333 13.0137 1.74333H12.0003V2.75667H13.0137C13.2981 2.75667 13.5381 2.85444 13.7337 3.05C13.9292 3.24555 14.027 3.48556 14.027 3.77V14.2233C14.027 14.5078 13.9292 14.7478 13.7337 14.9433C13.5381 15.1389 13.2981 15.2367 13.0137 15.2367H2.98701C2.70256 15.2367 2.47145 15.1389 2.29367 14.9433C2.11589 14.7478 2.02701 14.5078 2.02701 14.2233V3.77C2.02701 3.48556 2.11589 3.24555 2.29367 3.05C2.47145 2.85444 2.70256 2.75667 2.98701 2.75667H4.00034V1.74333ZM9.49367 1.26333C9.63589 1.26333 9.76034 1.30778 9.86701 1.39667C9.97367 1.48556 10.027 1.60111 10.027 1.74333V2.75667C10.027 2.89889 9.97367 3.01444 9.86701 3.10333C9.76034 3.19222 9.63589 3.23667 9.49367 3.23667H6.50701C6.36478 3.23667 6.24923 3.19222 6.16034 3.10333C6.07145 3.01444 6.00923 2.89889 5.97367 2.75667V1.74333C6.00923 1.60111 6.07145 1.48556 6.16034 1.39667C6.24923 1.30778 6.36478 1.26333 6.50701 1.26333H9.49367ZM6.50701 0.25C6.08034 0.25 5.72478 0.392221 5.44034 0.676666C5.15589 0.961111 5.01367 1.31667 5.01367 1.74333V2.75667C5.01367 3.18333 5.15589 3.53889 5.44034 3.82333C5.72478 4.10778 6.08034 4.25 6.50701 4.25H9.49367C9.92034 4.25 10.2759 4.10778 10.5603 3.82333C10.8448 3.53889 10.987 3.18333 10.987 2.75667V1.74333C10.987 1.31667 10.8448 0.961111 10.5603 0.676666C10.2759 0.392221 9.92034 0.25 9.49367 0.25H6.50701Z" fill="black"/>
</g>
<defs>
<clipPath id="clip0_602_3804">
<rect width="16" height="16" fill="white" transform="matrix(1 0 0 -1 0 16.25)"/>
</clipPath>
</defs>
</svg>
