<svg width="94" height="120" viewBox="0 0 94 120" fill="none" xmlns="http://www.w3.org/2000/svg">
<path d="M7.01071 119.15L23.1015 102.584L0.709916 96.9321L7.01071 119.15ZM92.8727 0.225183C83.5944 0.816751 74.5166 5.57023 66.0226 12.6092C57.5107 19.663 49.4216 29.1464 42.0966 39.5027C27.447 60.2144 15.664 84.6888 9.54229 101L13.2872 102.406C19.3107 86.3563 30.9437 62.1976 45.3622 41.8125C52.5712 31.6204 60.4291 22.4395 68.5749 15.6891C76.7384 8.92398 85.0289 4.73341 93.1272 4.21708L92.8727 0.225183Z" fill="white"/>
<path d="M7.01071 119.15L23.1015 102.584L0.709916 96.9321L7.01071 119.15ZM92.8727 0.225183C83.5944 0.816751 74.5166 5.57023 66.0226 12.6092C57.5107 19.663 49.4216 29.1464 42.0966 39.5027C27.447 60.2144 15.664 84.6888 9.54229 101L13.2872 102.406C19.3107 86.3563 30.9437 62.1976 45.3622 41.8125C52.5712 31.6204 60.4291 22.4395 68.5749 15.6891C76.7384 8.92398 85.0289 4.73341 93.1272 4.21708L92.8727 0.225183Z" fill="black" fill-opacity="0.2"/>
</svg>
