<svg width="59" height="56" viewBox="0 0 59 56" fill="none" xmlns="http://www.w3.org/2000/svg">
<path d="M21.9615 41.6458C21.4361 42.3495 20.9446 43.0759 20.461 43.7921L20.4272 43.8422C19.9532 44.5444 19.4862 45.2362 18.9914 45.9051L18.9913 45.9053C18.0714 47.1499 16.9888 48.1733 15.5865 48.764C15.5353 48.7856 15.4864 48.8061 15.4391 48.8255C15.4479 48.7831 15.4566 48.7411 15.4653 48.6994C15.5842 48.1266 15.6908 47.6128 15.8824 47.1054C16.373 45.8071 16.8879 44.5346 17.4053 43.2561C17.7917 42.3013 18.1795 41.3431 18.5595 40.3683C18.8767 39.5547 19.1649 38.7228 19.4494 37.9015C19.5759 37.5362 19.7017 37.1729 19.8291 36.8143L19.9106 36.5847L19.78 36.379C19.7297 36.2997 19.6769 36.2181 19.6243 36.1379L19.4809 35.9194L22.3621 41.945M21.9615 41.6458L22.3621 41.945M21.9615 41.6458C21.9614 41.6459 21.9614 41.6459 21.9614 41.6459L22.3621 41.945M21.9615 41.6458C22.6472 40.7271 23.3967 39.8488 24.1332 38.9858C24.3601 38.7199 24.5857 38.4556 24.8078 38.1919L24.8086 38.191C24.9211 38.0582 25.0531 37.9653 25.1589 37.8951C25.1995 37.8682 25.2364 37.8445 25.2723 37.8214C25.3427 37.7761 25.4089 37.7335 25.4905 37.675L26.3088 37.0878L26.2818 38.0946C26.1266 43.8911 27.127 49.3669 28.9343 54.8727M22.3621 41.945C23.0372 41.0405 23.7719 40.1795 24.5063 39.319C24.7349 39.051 24.9635 38.7832 25.1902 38.5141C25.2154 38.4843 25.2433 38.4569 25.2739 38.4305C25.2762 38.3098 25.2789 38.1889 25.2822 38.0678L25.782 38.0812L26.0735 38.4874C25.9711 38.5609 25.8674 38.6277 25.7886 38.6785C25.7822 38.6827 25.7759 38.6867 25.7699 38.6906C25.6945 44.4606 26.748 49.9187 28.5819 55.3986C28.6635 55.2754 28.7414 55.1598 28.8157 55.0493C28.8563 54.989 28.8958 54.9303 28.9343 54.8727M28.9343 54.8727C29.1434 54.5603 29.3233 54.2828 29.4818 53.9812M28.9343 54.8727C28.9999 55.0725 29.0665 55.2723 29.1342 55.4722C29.1602 55.4335 29.186 55.3952 29.2114 55.3573C29.4828 54.9536 29.7244 54.5943 29.9245 54.2136M32.9393 1.02334C32.0594 2.89789 31.4601 4.87197 31.1272 6.91062L31.1272 6.91069C30.8095 8.85433 30.5621 10.8046 30.3135 12.7652C30.2092 13.5873 30.1047 14.4112 29.9947 15.2372C29.953 15.5511 29.9132 15.8638 29.8693 16.2096C29.8399 16.4409 29.8086 16.687 29.7736 16.9582L29.623 18.1252L28.8874 17.2067C28.6122 16.8629 28.4493 16.6584 28.2867 16.4543C28.2866 16.4541 28.2864 16.4539 28.2863 16.4537L28.6774 16.1422C28.0287 15.3319 27.3857 14.5169 26.7426 13.7018C25.2788 11.8466 23.815 9.99136 22.2851 8.19214L32.9393 1.02334ZM32.9393 1.02334C32.9417 1.02808 32.9442 1.03284 32.9466 1.03762L32.9468 1.03802C34.0349 3.16904 34.5665 5.48582 35.1027 7.87725M32.9393 1.02334L35.1027 7.87725M22.64 20.3062C22.357 19.8095 22.0728 19.3147 21.7891 18.8209C20.0748 15.8365 18.3788 12.884 17.0647 9.72996L17.0647 9.72993C16.1564 7.55048 15.4146 5.37943 15.3116 3.06346C15.3876 3.09857 15.4608 3.13403 15.5343 3.17238L15.5345 3.17248C18.0309 4.47345 20.0756 6.36649 21.9042 8.51604L22.2056 20.5537M22.64 20.3062L22.2056 20.5537M22.64 20.3062C22.6399 20.306 22.6398 20.3058 22.6397 20.3056L22.2056 20.5537M22.64 20.3062C22.7207 20.4474 22.8003 20.5923 22.9021 20.7778C22.9512 20.8673 23.0055 20.9662 23.0676 21.0787L23.6458 22.1261L22.4943 21.8016C21.5384 21.5323 20.5941 21.2517 19.6566 20.9731C15.3167 19.6835 11.1207 18.4367 6.58232 18.5479M22.2056 20.5537C22.2337 20.603 22.2616 20.6524 22.2904 20.704C22.4487 20.7494 22.607 20.7945 22.7655 20.8391L22.6299 21.3203L22.1921 21.562C22.126 21.4422 22.0699 21.34 22.0202 21.2495C21.9965 21.2063 21.9743 21.1658 21.9531 21.1274C21.2404 20.9218 20.5309 20.7108 19.8229 20.5003C15.3628 19.1738 10.9633 17.8654 6.18688 18.0607C6.27675 18.1696 6.36343 18.277 6.44611 18.3795C6.49284 18.4375 6.53829 18.4938 6.58232 18.5479M6.58232 18.5479C6.61379 18.5866 6.64453 18.6242 6.67449 18.6604C6.89759 18.93 7.1 19.1534 7.32204 19.3357M6.58232 18.5479C6.37516 18.553 6.16728 18.5609 5.95865 18.5718C5.98841 18.6086 6.01788 18.6451 6.04713 18.6814C6.36385 19.0742 6.65432 19.4344 7.00489 19.7223M1.74171 37.1386C6.91011 33.6566 12.4477 30.8997 18.4725 28.8988L19.2818 28.63L18.6521 28.055C18.5988 28.0064 18.5436 27.9537 18.4872 27.8998C18.3525 27.771 18.2108 27.6356 18.0723 27.5342L1.74171 37.1386ZM1.74171 37.1386C2.55033 37.0822 3.35519 37.0105 4.15931 36.9273C5.31987 36.8067 6.48307 36.6782 7.64809 36.5494C10.0237 36.2869 12.407 36.0236 14.7909 35.8247C14.791 35.8247 14.791 35.8247 14.7911 35.8247L1.74171 37.1386ZM18.3149 28.4243L17.9778 28.7935C17.8962 28.719 17.8315 28.6576 17.777 28.6054C17.9558 28.5443 18.1352 28.484 18.3149 28.4243ZM18.3149 28.4243L18.1573 27.9498C18.0713 27.9783 17.9853 28.0071 17.8995 28.036C17.9668 28.0943 18.0344 28.1591 18.1097 28.2312C18.1716 28.2904 18.2386 28.3546 18.3149 28.4243ZM7.32204 19.3357L7.00489 19.7223M7.32204 19.3357C7.32209 19.3358 7.32215 19.3358 7.3222 19.3359L7.00489 19.7223M7.32204 19.3357L7.00489 19.7223M35.1027 7.87725C35.5206 9.74312 35.9582 11.6053 36.3952 13.4646C36.5254 14.0183 36.6555 14.5719 36.7849 15.1251L36.7851 15.1259C36.8228 15.2856 36.8895 15.461 36.9546 15.6322C36.9818 15.7036 37.0087 15.7743 37.033 15.8428L37.319 16.6461L37.8804 16.0043C42.0123 11.2812 46.665 7.26979 51.8952 3.88653C51.2171 5.09562 50.5384 6.30366 49.8595 7.51188C49.2107 8.66655 48.5618 9.82138 47.9134 10.9774C46.5385 13.4288 45.1952 15.9467 44.3527 18.7059C44.3526 18.7062 44.3525 18.7066 44.3524 18.7069L44.8306 18.8529C44.7892 18.9874 44.7518 19.1228 44.7125 19.2688C44.6966 19.2662 44.6806 19.2635 44.6647 19.2609L44.5824 19.7541L45.0646 19.8862C45.0696 19.8679 45.0745 19.85 45.0793 19.8323L35.1027 7.87725ZM43.8756 25.7123C43.7546 25.7349 43.5801 25.773 43.3788 25.9165L42.6332 26.4479L43.4833 26.7879C48.7961 28.9128 53.4733 32.0154 57.7576 35.7513C57.6966 35.759 57.636 35.7667 57.5756 35.7743C56.8666 35.8641 56.1944 35.9492 55.5011 35.9428C53.1985 35.9204 50.973 35.3243 48.7317 34.6012C47.2823 34.1332 45.8402 33.6531 44.3955 33.1721C43.5082 32.8767 42.6199 32.581 41.7284 32.2875L41.7277 32.2873C41.5167 32.2182 41.2867 32.1648 41.0357 32.1066C40.9222 32.0803 40.8044 32.053 40.6821 32.0227L39.759 31.7946L40.0942 32.6844C40.1292 32.7773 40.1627 32.873 40.1963 32.9688C40.2744 33.1917 40.3527 33.415 40.4498 33.6044L40.4502 33.6053C41.457 35.559 42.4711 37.5088 43.4859 39.4578C45.4024 43.1391 46.8957 46.9756 47.8608 51.0043C47.9295 51.2921 47.9633 51.5975 47.9895 51.9519C47.9979 52.0655 48.0056 52.187 48.0137 52.3143C48.0148 52.3304 48.0158 52.3466 48.0168 52.3629C47.9198 52.3254 47.8558 52.2938 47.8048 52.2592C47.5472 52.0838 47.2911 51.9138 47.0378 51.7456C46.2235 51.205 45.4386 50.6839 44.7283 50.0667C41.7407 47.4686 38.9415 44.7145 36.5794 41.5493L36.5794 41.5493C35.9944 40.7656 35.3346 40.0108 34.6901 39.2736C34.3353 38.8678 33.9852 38.4673 33.6547 38.0702C33.6084 38.0144 33.5639 37.9395 33.5091 37.83C33.495 37.8018 33.4776 37.7657 33.4584 37.7258C33.4176 37.6409 33.3682 37.5383 33.3226 37.4545L33.0568 36.9663L32.5994 37.2822L32.5977 37.2833C32.4955 37.3539 32.3939 37.4241 32.2935 37.493L32.1066 37.6213L32.08 37.8465C32.0522 38.082 32.0213 38.3225 31.99 38.566C31.9211 39.1017 31.8503 39.6519 31.8068 40.1953L43.8756 25.7123ZM43.8756 25.7123C43.8753 25.7124 43.875 25.7124 43.8748 25.7125L43.9063 25.8801M43.8756 25.7123L43.907 25.8804M29.4818 53.9812L32.5481 38.1407M29.4818 53.9812L29.9245 54.2136M29.4818 53.9812C29.4819 53.9811 29.4819 53.981 29.482 53.9809L29.9245 54.2136M29.9245 54.2136C31.1093 51.9565 31.5458 49.494 31.7831 46.9935C31.9136 45.6212 32.0114 44.2456 32.1093 42.8699C32.1717 41.9916 32.2342 41.1133 32.3052 40.2356C32.3477 39.7042 32.4159 39.1744 32.484 38.6448C32.5056 38.4768 32.5273 38.3088 32.5481 38.1407M32.5481 38.1407C32.5578 38.0622 32.5673 37.9837 32.5766 37.9052C32.6781 37.8355 32.7808 37.7645 32.8835 37.6936M32.5481 38.1407C32.5448 38.1338 32.5415 38.127 32.5383 38.1203C32.5067 38.0541 32.48 37.9981 32.4444 37.9327L32.5095 37.8972L32.5544 37.8728L32.8835 37.6936M32.8835 37.6936C32.9238 37.7677 32.9607 37.8447 32.9976 37.9216C33.0033 37.9333 33.0089 37.9451 33.0146 37.9569L33.0698 37.9634M32.8835 37.6936L33.0698 37.9634M33.0698 37.9634L33.0727 37.9676M33.0698 37.9634L33.0731 37.9638C33.073 37.9651 33.0728 37.9663 33.0727 37.9676M33.0727 37.9676C33.0693 37.9966 33.0658 38.0256 33.0623 38.0545C33.0776 38.0851 33.0933 38.1154 33.1094 38.1452C33.1288 38.1318 33.1482 38.1184 33.1676 38.1051L33.0727 37.9676ZM40.5621 32.5081L41.03 32.3319C41.0761 32.4542 41.1125 32.5566 41.1436 32.6454C41.082 32.6308 41.0178 32.6159 40.9503 32.6003C40.8327 32.573 40.7048 32.5434 40.5621 32.5081ZM40.5621 32.5081L40.4421 32.9935C40.5626 33.0233 40.6684 33.0483 40.7635 33.0704C40.7373 32.9998 40.7113 32.9254 40.6834 32.8458C40.6475 32.743 40.6085 32.6314 40.5621 32.5081ZM43.9673 26.2038C44.1344 26.1724 44.3016 26.1413 44.4688 26.1105C44.2823 26.0326 44.095 25.9559 43.907 25.8804M43.9673 26.2038L43.907 25.8804M43.9673 26.2038L43.9063 25.8801M43.9673 26.2038C43.8756 26.221 43.7839 26.2417 43.669 26.3237M43.907 25.8804C43.9067 25.8803 43.9065 25.8802 43.9063 25.8801M43.9063 25.8801C43.8891 25.8732 43.8719 25.8663 43.8547 25.8594L43.669 26.3237M43.669 26.3237C43.7849 26.37 43.9006 26.4169 44.0159 26.4642C44.0161 26.4642 44.0163 26.4643 44.0164 26.4644C44.149 26.5187 44.2812 26.5737 44.413 26.6292C44.2951 26.6511 44.1775 26.673 44.0599 26.6952L44.0591 26.6954C44.0183 26.703 44.0054 26.7066 43.9964 26.7098C43.9908 26.7118 43.9797 26.7162 43.9592 26.7308L43.669 26.3237ZM57.7122 20.601C57.904 20.6226 58.0958 20.646 58.2877 20.6711C58.2203 20.7575 58.1585 20.8397 58.0995 20.9183C58.0438 20.9923 57.9906 21.063 57.9376 21.1308C57.7651 21.1098 57.5926 21.0902 57.4201 21.072C57.42 21.072 57.42 21.0719 57.4199 21.0719C57.3931 21.0691 57.3664 21.0663 57.3397 21.0635C57.3505 21.0518 57.3613 21.04 57.3721 21.0282L57.3722 21.0281C57.4801 20.9101 57.5687 20.7921 57.6815 20.6418C57.6915 20.6284 57.7017 20.6148 57.7122 20.601ZM18.0722 27.5342L17.7769 27.9376L18.0722 27.5342ZM12.6012 24.1521L12.9042 23.7544C12.9041 23.7544 12.9041 23.7543 12.9041 23.7543L12.6012 24.1521ZM37.308 15.1407C37.3349 15.2252 37.3684 15.3129 37.4067 15.4132C37.4365 15.4914 37.4692 15.5772 37.5041 15.6751L37.1278 15.3459C37.1877 15.2773 37.2478 15.2089 37.308 15.1407ZM51.632 24.222C51.632 24.222 51.6319 24.222 51.6319 24.222L51.7474 24.7085L51.632 24.222ZM19.3934 46.2024C18.4409 47.4912 17.2927 48.5879 15.7803 49.225L19.3934 46.2024Z" fill="white" stroke="black"/>
</svg>
